<mxfile host="app.diagrams.net" agent="Mozilla/5.0 (Windows NT 10.0; Win64; x64) AppleWebKit/537.36 (KHTML, like Gecko) Chrome/139.0.0.0 Safari/537.36" version="28.0.7">
  <diagram name="Página-1" id="CWbNcbKAvJK6IpXLLuld">
    <mxGraphModel grid="1" page="1" gridSize="10" guides="1" tooltips="1" connect="1" arrows="1" fold="1" pageScale="1" pageWidth="827" pageHeight="1169" math="0" shadow="0">
      <root>
        <mxCell id="0" />
        <mxCell id="1" parent="0" />
        <mxCell id="ZQg8AeIHl2Ewhg5QZKMD-6" style="edgeStyle=orthogonalEdgeStyle;rounded=0;orthogonalLoop=1;jettySize=auto;html=1;exitX=1;exitY=0.5;exitDx=0;exitDy=0;" edge="1" parent="1" source="ZQg8AeIHl2Ewhg5QZKMD-1" target="ZQg8AeIHl2Ewhg5QZKMD-3">
          <mxGeometry relative="1" as="geometry">
            <mxPoint x="280" y="140" as="targetPoint" />
          </mxGeometry>
        </mxCell>
        <mxCell id="ZQg8AeIHl2Ewhg5QZKMD-1" value="&lt;font style=&quot;font-size: 10px;&quot;&gt;Bateria LiFePO4 4S&lt;/font&gt;" style="rounded=0;whiteSpace=wrap;html=1;" vertex="1" parent="1">
          <mxGeometry x="178.5" y="80" width="100" height="51.25" as="geometry" />
        </mxCell>
        <mxCell id="qfXmaxUwDSZ9L6t3wbxL-14" style="edgeStyle=orthogonalEdgeStyle;rounded=0;orthogonalLoop=1;jettySize=auto;html=1;entryX=0.5;entryY=0;entryDx=0;entryDy=0;" edge="1" parent="1" source="ZQg8AeIHl2Ewhg5QZKMD-3" target="YirHBxdHQHqsqM3jdSsx-1">
          <mxGeometry relative="1" as="geometry" />
        </mxCell>
        <mxCell id="qfXmaxUwDSZ9L6t3wbxL-16" style="edgeStyle=orthogonalEdgeStyle;rounded=0;orthogonalLoop=1;jettySize=auto;html=1;entryX=0;entryY=0.75;entryDx=0;entryDy=0;" edge="1" parent="1" source="ZQg8AeIHl2Ewhg5QZKMD-3" target="YirHBxdHQHqsqM3jdSsx-5">
          <mxGeometry relative="1" as="geometry" />
        </mxCell>
        <mxCell id="qfXmaxUwDSZ9L6t3wbxL-18" style="edgeStyle=orthogonalEdgeStyle;rounded=0;orthogonalLoop=1;jettySize=auto;html=1;" edge="1" parent="1" source="ZQg8AeIHl2Ewhg5QZKMD-3" target="YirHBxdHQHqsqM3jdSsx-6">
          <mxGeometry relative="1" as="geometry">
            <Array as="points">
              <mxPoint x="560" y="120" />
              <mxPoint x="560" y="195" />
            </Array>
          </mxGeometry>
        </mxCell>
        <mxCell id="ZQg8AeIHl2Ewhg5QZKMD-3" value="&lt;font style=&quot;font-size: 10px;&quot;&gt;Regulador DC-DC&lt;/font&gt;&lt;div&gt;&lt;font style=&quot;font-size: 10px;&quot;&gt;(12V - 5V)&lt;/font&gt;&lt;/div&gt;" style="rounded=0;whiteSpace=wrap;html=1;" vertex="1" parent="1">
          <mxGeometry x="390" y="80" width="110" height="50" as="geometry" />
        </mxCell>
        <mxCell id="ZQg8AeIHl2Ewhg5QZKMD-4" value="&lt;font style=&quot;font-size: 10px;&quot;&gt;Sensor de temperatura (DS18B20)&lt;/font&gt;" style="rounded=0;whiteSpace=wrap;html=1;" vertex="1" parent="1">
          <mxGeometry x="180" y="175" width="96" height="50" as="geometry" />
        </mxCell>
        <mxCell id="YirHBxdHQHqsqM3jdSsx-4" style="edgeStyle=orthogonalEdgeStyle;rounded=0;orthogonalLoop=1;jettySize=auto;html=1;entryX=0;entryY=0.75;entryDx=0;entryDy=0;" edge="1" parent="1" source="ZQg8AeIHl2Ewhg5QZKMD-5" target="YirHBxdHQHqsqM3jdSsx-1">
          <mxGeometry relative="1" as="geometry" />
        </mxCell>
        <mxCell id="ZQg8AeIHl2Ewhg5QZKMD-5" value="&lt;font style=&quot;font-size: 10px; background-color: light-dark(#ffffff, var(--ge-dark-color, #121212));&quot;&gt;Interface de configuração (botões/encoder)&lt;/font&gt;" style="rounded=0;whiteSpace=wrap;html=1;" vertex="1" parent="1">
          <mxGeometry x="178.5" y="265" width="99" height="50" as="geometry" />
        </mxCell>
        <mxCell id="qfXmaxUwDSZ9L6t3wbxL-8" style="edgeStyle=orthogonalEdgeStyle;rounded=0;orthogonalLoop=1;jettySize=auto;html=1;entryX=0;entryY=0.75;entryDx=0;entryDy=0;" edge="1" parent="1" source="YirHBxdHQHqsqM3jdSsx-1" target="YirHBxdHQHqsqM3jdSsx-6">
          <mxGeometry relative="1" as="geometry">
            <Array as="points">
              <mxPoint x="490" y="250" />
              <mxPoint x="600" y="250" />
              <mxPoint x="600" y="216" />
            </Array>
          </mxGeometry>
        </mxCell>
        <mxCell id="qfXmaxUwDSZ9L6t3wbxL-15" style="edgeStyle=orthogonalEdgeStyle;rounded=0;orthogonalLoop=1;jettySize=auto;html=1;" edge="1" parent="1" source="YirHBxdHQHqsqM3jdSsx-1" target="YirHBxdHQHqsqM3jdSsx-5">
          <mxGeometry relative="1" as="geometry">
            <Array as="points">
              <mxPoint x="530" y="180" />
              <mxPoint x="530" y="70" />
            </Array>
          </mxGeometry>
        </mxCell>
        <mxCell id="YirHBxdHQHqsqM3jdSsx-1" value="Microcontrolador&lt;div&gt;Esp32&lt;/div&gt;" style="rounded=0;whiteSpace=wrap;html=1;" vertex="1" parent="1">
          <mxGeometry x="390" y="170" width="110" height="60" as="geometry" />
        </mxCell>
        <mxCell id="YirHBxdHQHqsqM3jdSsx-3" style="edgeStyle=orthogonalEdgeStyle;rounded=0;orthogonalLoop=1;jettySize=auto;html=1;entryX=0;entryY=0.5;entryDx=0;entryDy=0;" edge="1" parent="1" source="ZQg8AeIHl2Ewhg5QZKMD-4" target="YirHBxdHQHqsqM3jdSsx-1">
          <mxGeometry relative="1" as="geometry" />
        </mxCell>
        <mxCell id="YirHBxdHQHqsqM3jdSsx-5" value="&lt;font style=&quot;font-size: 10px;&quot;&gt;Buzzer&lt;/font&gt;&lt;div&gt;&lt;font style=&quot;font-size: 10px;&quot;&gt;Alarme&lt;/font&gt;&lt;/div&gt;" style="rounded=0;whiteSpace=wrap;html=1;" vertex="1" parent="1">
          <mxGeometry x="620" y="60" width="100" height="60" as="geometry" />
        </mxCell>
        <mxCell id="YirHBxdHQHqsqM3jdSsx-6" value="&lt;font style=&quot;font-size: 10px;&quot;&gt;Display 7&lt;/font&gt;&lt;div&gt;&lt;font style=&quot;font-size: 10px;&quot;&gt;&amp;nbsp;Segmentos&amp;nbsp;&lt;span style=&quot;background-color: transparent; color: light-dark(rgb(0, 0, 0), rgb(255, 255, 255));&quot;&gt;&amp;nbsp;&lt;/span&gt;&lt;/font&gt;&lt;/div&gt;" style="rounded=0;whiteSpace=wrap;html=1;" vertex="1" parent="1">
          <mxGeometry x="620" y="175" width="90" height="55" as="geometry" />
        </mxCell>
        <mxCell id="qfXmaxUwDSZ9L6t3wbxL-1" value="12V" style="text;html=1;align=center;verticalAlign=middle;resizable=0;points=[];autosize=1;strokeColor=none;fillColor=none;" vertex="1" parent="1">
          <mxGeometry x="310" y="80" width="40" height="30" as="geometry" />
        </mxCell>
        <mxCell id="qfXmaxUwDSZ9L6t3wbxL-3" value="5V" style="text;html=1;align=center;verticalAlign=middle;resizable=0;points=[];autosize=1;strokeColor=none;fillColor=none;" vertex="1" parent="1">
          <mxGeometry x="560" y="170" width="40" height="30" as="geometry" />
        </mxCell>
        <mxCell id="qfXmaxUwDSZ9L6t3wbxL-4" value="Temperatura" style="text;html=1;align=center;verticalAlign=middle;resizable=0;points=[];autosize=1;strokeColor=none;fillColor=none;" vertex="1" parent="1">
          <mxGeometry x="270" y="175" width="90" height="30" as="geometry" />
        </mxCell>
        <mxCell id="qfXmaxUwDSZ9L6t3wbxL-7" value="Limite" style="text;html=1;align=center;verticalAlign=middle;resizable=0;points=[];autosize=1;strokeColor=none;fillColor=none;" vertex="1" parent="1">
          <mxGeometry x="280" y="235" width="60" height="30" as="geometry" />
        </mxCell>
        <mxCell id="qfXmaxUwDSZ9L6t3wbxL-11" value="5V" style="text;html=1;align=center;verticalAlign=middle;resizable=0;points=[];autosize=1;strokeColor=none;fillColor=none;" vertex="1" parent="1">
          <mxGeometry x="560" y="80" width="40" height="30" as="geometry" />
        </mxCell>
        <mxCell id="qfXmaxUwDSZ9L6t3wbxL-12" value="5V" style="text;html=1;align=center;verticalAlign=middle;resizable=0;points=[];autosize=1;strokeColor=none;fillColor=none;" vertex="1" parent="1">
          <mxGeometry x="414" y="130" width="40" height="30" as="geometry" />
        </mxCell>
        <mxCell id="qfXmaxUwDSZ9L6t3wbxL-13" value="&lt;font style=&quot;font-size: 10px;&quot;&gt;Controle PWM&lt;/font&gt;" style="text;html=1;align=center;verticalAlign=middle;resizable=0;points=[];autosize=1;strokeColor=none;fillColor=none;" vertex="1" parent="1">
          <mxGeometry x="530" y="50" width="90" height="30" as="geometry" />
        </mxCell>
        <mxCell id="qfXmaxUwDSZ9L6t3wbxL-19" value="Dados" style="text;html=1;align=center;verticalAlign=middle;resizable=0;points=[];autosize=1;strokeColor=none;fillColor=none;" vertex="1" parent="1">
          <mxGeometry x="520" y="225" width="60" height="30" as="geometry" />
        </mxCell>
      </root>
    </mxGraphModel>
  </diagram>
</mxfile>
